<svg width="99" height="32" viewBox="0 0 99 32" fill="none" xmlns="http://www.w3.org/2000/svg">
<path d="M95.88 23.36C97.416 23.36 98.76 24.704 98.76 26.24C98.76 27.008 98.472 27.68 97.896 28.256C95.688 30.464 93.096 32 90.12 32C84.072 32 81.48 26.72 81.48 20.48C81.48 12.128 80.232 11.84 79.56 11.84C77.928 11.84 75.528 14.528 71.4 20.672C67.848 26.048 64.488 32 58.44 32C51.432 32 50.76 24.608 50.76 17.6C50.76 9.248 49.512 8.96 48.84 8.96C47.208 8.96 44.808 11.648 40.68 17.792C37.128 23.168 33.768 29.12 27.72 29.12C20.712 29.12 20.04 21.728 20.04 14.72C20.04 6.752 18.792 6.08 17.16 6.08C15.432 6.08 13.608 7.52 10.152 14.528C9.096 16.64 7.752 18.56 5.736 20.576C5.16 21.152 4.488 21.44 3.72 21.44C2.184 21.44 0.839996 20.096 0.839996 18.56C0.839996 17.792 1.128 17.12 1.704 16.544C3.336 14.912 4.104 13.76 4.968 12.032C8.232 5.6 11.208 0.32 17.16 0.32C24.36 0.32 25.8 7.328 25.8 14.72C25.8 23.072 27.048 23.36 27.72 23.36C29.352 23.36 31.752 20.672 35.88 14.528C39.432 9.152 42.792 3.2 48.84 3.2C55.848 3.2 56.52 10.592 56.52 17.6C56.52 25.952 57.768 26.24 58.44 26.24C60.072 26.24 62.472 23.552 66.6 17.408C70.152 12.032 73.512 6.08 79.56 6.08C86.568 6.08 87.24 13.472 87.24 20.48C87.24 25.76 88.488 26.24 90.12 26.24C90.984 26.24 92.232 25.856 93.864 24.224C94.44 23.648 95.112 23.36 95.88 23.36Z" fill="#303AF5"/>
</svg>
