<svg width="519" height="97" viewBox="0 0 519 97" fill="none" xmlns="http://www.w3.org/2000/svg">
<path d="M3.72 53.44C2.184 53.44 0.839996 52.096 0.839996 50.56C0.839996 49.792 1.128 49.12 1.704 48.544C3.336 46.912 4.104 45.76 4.968 44.032C8.232 37.6 11.208 32.32 17.16 32.32C24.36 32.32 25.8 39.328 25.8 46.72C25.8 55.072 27.048 55.36 27.72 55.36C29.352 55.36 31.752 52.672 35.88 46.528C39.432 41.152 42.792 35.2 48.84 35.2C55.848 35.2 56.52 42.592 56.52 49.6C56.52 57.952 57.768 58.24 58.44 58.24C60.072 58.24 62.472 55.552 66.6 49.408C70.152 44.032 73.512 38.08 79.56 38.08C86.568 38.08 87.24 45.472 87.24 52.48C87.24 56.896 88.872 58.24 90.12 58.24C91.656 58.24 93 59.584 93 61.12C93 62.656 91.656 64 90.12 64C83.688 64 81.48 57.664 81.48 52.48C81.48 44.128 80.232 43.84 79.56 43.84C77.928 43.84 75.528 46.528 71.4 52.672C67.848 58.048 64.488 64 58.44 64C51.432 64 50.76 56.608 50.76 49.6C50.76 41.248 49.512 40.96 48.84 40.96C47.208 40.96 44.808 43.648 40.68 49.792C37.128 55.168 33.768 61.12 27.72 61.12C20.712 61.12 20.04 53.728 20.04 46.72C20.04 38.752 18.792 38.08 17.16 38.08C15.432 38.08 13.608 39.52 10.152 46.528C9.096 48.64 7.752 50.56 5.736 52.576C5.16 53.152 4.488 53.44 3.72 53.44Z" fill="url(#paint0_linear_4_6)"/>
<path d="M133.361 40C133.361 41.44 132.209 42.88 130.481 42.88C129.233 42.88 128.177 42.016 127.793 40.864C127.217 39.232 125.393 38.08 123.761 38.08C117.041 38.08 109.361 46.336 109.361 53.44C109.361 56.704 110.801 58.24 113.201 58.24C118.673 58.24 124.721 54.592 130.193 47.776C130.769 47.104 131.537 46.72 132.401 46.72C134.033 46.72 135.281 48.256 135.281 49.6C135.281 54.016 136.145 57.28 137.681 59.488C137.969 59.968 138.161 60.544 138.161 61.12C138.161 62.56 136.913 64 135.281 64C132.113 64 130.769 58.816 130.193 56.224C125.201 60.928 119.345 64 113.201 64C108.785 64 105.809 61.408 104.465 57.952C100.721 61.504 95.5372 64 90.1612 64C88.6252 64 87.2812 62.656 87.2812 61.12C87.2812 59.584 88.6252 58.24 90.1612 58.24C96.1132 58.24 102.545 52.864 104.369 48.352C106.865 39.904 114.929 32.32 123.761 32.32C127.889 32.32 131.825 35.008 133.169 39.136C133.265 39.424 133.361 39.712 133.361 40Z" fill="url(#paint1_linear_4_6)"/>
<path d="M180.431 0.639999C182.063 0.639999 183.311 1.888 183.311 3.616C183.311 4 182.927 7.36 182.447 12.448C181.775 19.168 181.007 28.48 180.431 34.528C180.047 38.752 179.471 45.088 179.471 47.68C179.471 56.224 180.911 58.24 185.231 58.24C186.767 58.24 188.111 59.584 188.111 61.12C188.111 62.656 186.767 64 185.231 64C176.111 64 173.711 56.416 173.711 47.68V47.392C167.183 63.04 159.023 64 155.471 64C149.231 64 145.871 58.816 145.871 53.44C145.871 43.264 155.471 32.32 166.031 32.32C168.239 32.32 170.351 32.896 172.079 34.144C174.671 24.352 176.111 15.808 177.551 3.232C177.743 1.888 178.991 0.639999 180.431 0.639999ZM166.031 38.08C159.311 38.08 151.631 46.336 151.631 53.44C151.631 56.704 153.071 58.24 155.471 58.24H156.239C158.735 58.24 163.823 57.376 169.295 42.88C169.295 42.208 169.679 41.152 169.679 40.768C169.679 39.328 168.623 38.08 166.031 38.08Z" fill="url(#paint2_linear_4_6)"/>
<path d="M214.024 41.92C214.024 39.616 212.488 38.08 210.184 38.08C205.288 38.08 201.544 42.304 201.544 47.68C201.544 50.176 202.312 52 203.656 53.536C210.184 50.176 214.024 45.664 214.024 41.92ZM217.864 64C212.488 64 207.112 62.944 202.792 60.256C197.128 62.56 190.888 64 185.224 64C183.688 64 182.344 62.656 182.344 61.12C182.344 59.584 183.688 58.24 185.224 58.24C189.256 58.24 193.864 57.376 198.184 55.84C196.648 53.536 195.784 50.752 195.784 47.68C195.784 39.616 201.64 32.32 210.184 32.32C215.56 32.32 219.784 36.544 219.784 41.92C219.784 48.256 214.984 53.44 209.32 56.992C211.816 57.856 214.792 58.24 217.864 58.24C219.4 58.24 220.744 59.584 220.744 61.12C220.744 62.656 219.4 64 217.864 64Z" fill="url(#paint3_linear_4_6)"/>
<path d="M250.489 56.32C250.489 57.472 251.257 58.24 252.409 58.24C256.249 58.24 260.089 54.016 260.089 49.6C260.089 49.024 259.993 48.448 259.705 47.872C253.561 49.504 250.489 52.48 250.489 56.32ZM251.449 12.16C251.449 8.512 249.529 6.4 247.609 6.4C243.481 6.4 239.929 11.776 239.929 17.92C239.929 22.528 242.425 26.176 246.457 29.632C249.529 23.008 251.449 16.576 251.449 12.16ZM217.849 64C216.313 64 214.969 62.656 214.969 61.12C214.969 59.584 216.313 58.24 217.849 58.24C225.625 58.24 236.473 47.68 243.769 34.816C238.873 30.784 234.169 25.504 234.169 17.92C234.169 10.624 238.297 0.639999 247.609 0.639999C254.329 0.639999 257.209 7.168 257.209 12.16C257.209 18.304 254.809 25.696 251.161 33.184C255.001 35.872 259.129 38.464 262.105 41.536C264.601 41.152 267.097 40.96 269.689 40.96C271.225 40.96 272.569 42.304 272.569 43.84C272.569 45.376 271.225 46.72 269.689 46.72C268.249 46.72 266.809 46.816 265.465 46.912C265.753 47.776 265.849 48.736 265.849 49.6C265.849 56.704 260.089 64 252.409 64C248.185 64 244.729 60.544 244.729 56.32C244.729 49.696 249.625 45.472 255.385 43.264C253.369 41.728 250.969 40.096 248.473 38.368C240.985 51.232 229.561 64 217.849 64Z" fill="url(#paint4_linear_4_6)"/>
<path d="M279.293 35.2C281.021 35.2 282.172 36.64 282.172 38.08C282.172 38.272 282.077 38.464 282.077 38.656C281.309 42.4 281.212 43.936 281.212 46.72C281.212 52.288 283.9 55.36 288.892 55.36C294.556 55.36 300.988 44.416 301.372 35.104C301.468 33.664 302.621 32.32 304.253 32.32C305.597 32.32 306.748 33.28 307.036 34.624C308.956 44.224 313.853 66.304 313.853 80.32C313.853 88.48 309.724 96.64 302.332 96.64C297.244 96.64 294.652 91.84 294.652 88C294.652 86.464 295.997 85.12 297.533 85.12C299.069 85.12 300.413 86.464 300.413 88C300.413 89.92 301.66 90.88 302.332 90.88C304.54 90.88 308.092 87.52 308.092 80.32C308.092 71.68 305.981 58.624 303.965 48.352C301.085 54.784 296.092 61.12 288.892 61.12C280.444 61.12 275.452 54.592 275.452 46.72V45.28C273.628 46.144 271.709 46.72 269.693 46.72C268.157 46.72 266.812 45.376 266.812 43.84C266.812 42.304 268.157 40.96 269.693 40.96C272.285 40.96 275.837 38.56 276.701 36.832C277.181 35.872 278.237 35.2 279.293 35.2Z" fill="url(#paint5_linear_4_6)"/>
<path d="M297.533 90.88C295.997 90.88 294.652 89.536 294.652 88C294.652 72.448 315.388 54.496 322.396 48.352C329.5 42.112 334.3 38.08 339.772 38.08C346.396 38.08 347.932 44.8 347.932 49.6C347.932 54.4 349.276 55.36 350.332 55.36C351.964 55.36 354.364 52.672 358.492 46.528C362.044 41.152 365.404 35.2 371.452 35.2C378.46 35.2 379.133 42.592 379.133 49.6C379.133 57.952 380.38 58.24 381.052 58.24C382.684 58.24 385.084 55.552 389.212 49.408C392.764 44.032 396.125 38.08 402.173 38.08C409.181 38.08 409.853 45.472 409.853 52.48C409.853 56.896 411.485 58.24 412.733 58.24C414.269 58.24 415.612 59.584 415.612 61.12C415.612 62.656 414.269 64 412.733 64C406.301 64 404.092 57.664 404.092 52.48C404.092 44.128 402.845 43.84 402.173 43.84C400.541 43.84 398.141 46.528 394.013 52.672C390.461 58.048 387.1 64 381.052 64C374.044 64 373.372 56.608 373.372 49.6C373.372 41.248 372.124 40.96 371.452 40.96C369.82 40.96 367.421 43.648 363.293 49.792C359.741 55.168 356.38 61.12 350.332 61.12C343.708 61.12 342.172 54.4 342.172 49.6C342.172 44.8 340.828 43.84 339.772 43.84C337.564 43.84 333.533 46.336 326.237 52.768C318.845 59.296 300.413 76.672 300.413 88C300.413 89.536 299.069 90.88 297.533 90.88Z" fill="url(#paint6_linear_4_6)"/>
<path d="M455.955 40C455.955 41.44 454.803 42.88 453.075 42.88C451.827 42.88 450.771 42.016 450.387 40.864C449.811 39.232 447.987 38.08 446.355 38.08C439.635 38.08 431.955 46.336 431.955 53.44C431.955 56.704 433.395 58.24 435.795 58.24C441.939 58.24 449.811 52.48 452.307 44.896C452.691 43.744 453.747 42.88 454.995 42.88C456.531 42.88 457.875 44.224 457.875 45.76C457.875 52.672 459.891 58.24 464.595 58.24C466.131 58.24 467.475 59.584 467.475 61.12C467.475 62.656 466.131 64 464.595 64C458.163 64 454.803 59.2 453.363 54.592C448.851 60.16 442.323 64 435.795 64C431.379 64 428.403 61.408 427.059 57.952C423.315 61.504 418.131 64 412.755 64C411.219 64 409.875 62.656 409.875 61.12C409.875 59.584 411.219 58.24 412.755 58.24C418.707 58.24 425.139 52.864 426.963 48.352C429.459 39.904 437.523 32.32 446.355 32.32C450.483 32.32 454.419 35.008 455.763 39.136C455.859 39.424 455.955 39.712 455.955 40Z" fill="url(#paint7_linear_4_6)"/>
<path d="M505.879 55.36C510.295 55.36 512.599 53.344 512.599 49.6C512.599 44.8 509.431 40.96 505.879 40.96C503.287 40.96 499.447 44.224 495.895 50.56C499.447 54.016 503.095 55.36 505.879 55.36ZM484.759 74.656C483.031 74.656 481.879 73.216 481.879 71.776C481.879 71.584 481.879 71.296 481.975 71.104C483.511 65.152 485.911 57.856 488.983 51.424C487.831 49.984 486.583 48.064 485.623 46.72C484.279 56.512 474.007 64 464.599 64C463.063 64 461.719 62.656 461.719 61.12C461.719 59.584 463.063 58.24 464.599 58.24C471.895 58.24 479.959 51.424 479.959 44.8C479.959 41.728 479.575 39.904 478.327 37.408C478.135 36.928 477.943 36.448 477.943 36.064C477.943 34.432 479.575 33.28 480.919 33.28C481.303 33.28 481.783 33.376 482.167 33.568C484.183 34.624 487.447 39.328 492.055 45.76C495.511 40.192 499.927 35.2 505.879 35.2C513.847 35.2 518.359 42.88 518.359 49.6C518.359 56.992 512.599 61.12 505.879 61.12C501.751 61.12 497.239 59.392 493.207 55.936C490.807 61.408 488.791 67.456 487.543 72.448C487.255 73.696 486.007 74.656 484.759 74.656Z" fill="url(#paint8_linear_4_6)"/>
<defs>
<linearGradient id="paint0_linear_4_6" x1="-3" y1="24.5" x2="617" y2="75" gradientUnits="userSpaceOnUse">
<stop stop-color="#303AF5"/>
<stop offset="1" stop-color="#BE4BDB"/>
</linearGradient>
<linearGradient id="paint1_linear_4_6" x1="-3" y1="24.5" x2="617" y2="75" gradientUnits="userSpaceOnUse">
<stop stop-color="#303AF5"/>
<stop offset="1" stop-color="#BE4BDB"/>
</linearGradient>
<linearGradient id="paint2_linear_4_6" x1="-3" y1="24.5" x2="617" y2="75" gradientUnits="userSpaceOnUse">
<stop stop-color="#303AF5"/>
<stop offset="1" stop-color="#BE4BDB"/>
</linearGradient>
<linearGradient id="paint3_linear_4_6" x1="-3" y1="24.5" x2="617" y2="75" gradientUnits="userSpaceOnUse">
<stop stop-color="#303AF5"/>
<stop offset="1" stop-color="#BE4BDB"/>
</linearGradient>
<linearGradient id="paint4_linear_4_6" x1="-3" y1="24.5" x2="617" y2="75" gradientUnits="userSpaceOnUse">
<stop stop-color="#303AF5"/>
<stop offset="1" stop-color="#BE4BDB"/>
</linearGradient>
<linearGradient id="paint5_linear_4_6" x1="-3" y1="24.5" x2="617" y2="75" gradientUnits="userSpaceOnUse">
<stop stop-color="#303AF5"/>
<stop offset="1" stop-color="#BE4BDB"/>
</linearGradient>
<linearGradient id="paint6_linear_4_6" x1="-3" y1="24.5" x2="617" y2="75" gradientUnits="userSpaceOnUse">
<stop stop-color="#303AF5"/>
<stop offset="1" stop-color="#BE4BDB"/>
</linearGradient>
<linearGradient id="paint7_linear_4_6" x1="-3" y1="24.5" x2="617" y2="75" gradientUnits="userSpaceOnUse">
<stop stop-color="#303AF5"/>
<stop offset="1" stop-color="#BE4BDB"/>
</linearGradient>
<linearGradient id="paint8_linear_4_6" x1="-3" y1="24.5" x2="617" y2="75" gradientUnits="userSpaceOnUse">
<stop stop-color="#303AF5"/>
<stop offset="1" stop-color="#BE4BDB"/>
</linearGradient>
</defs>
</svg>
